<svg width="364" height="276" viewBox="0 0 364 276" fill="none" xmlns="http://www.w3.org/2000/svg">
<path d="M73.6737 139.793C72.388 139.293 70.245 138.221 68.4592 136.078C64.8876 131.65 65.7447 126.006 66.0305 124.221C66.6019 120.72 68.102 118.22 69.3878 116.006C72.3165 111.077 74.1738 110.934 75.4596 107.22C75.7453 106.363 75.8881 104.077 76.031 99.505C76.3882 92.2189 76.2453 91.1475 77.0311 89.2188C77.3882 88.3616 78.6026 85.29 81.6027 83.0756C86.2459 79.7183 92.8891 79.8611 97.5322 82.5756C101.604 85.0043 103.39 88.9331 104.318 91.0046C106.533 95.9334 105.033 97.4335 107.318 101.291C109.819 105.434 113.962 107.577 115.319 108.148C118.819 109.791 120.533 109.291 123.748 111.649C125.962 113.22 127.105 114.863 127.462 115.506C127.819 116.077 128.82 117.72 129.391 120.22C130.32 124.435 128.748 125.792 129.177 128.935C129.677 133.078 132.82 133.293 135.606 138.364C138.892 144.365 138.106 150.651 137.891 152.222C137.606 154.079 136.749 160.508 131.605 165.151C126.034 170.223 117.462 171.295 109.533 168.437C97.6036 158.865 85.603 149.365 73.6737 139.793Z" fill="#39424E"/>
<path d="M50.6011 208.297C54.6013 220.226 58.673 232.155 62.6732 244.084C62.6018 248.727 62.5303 253.442 62.4589 258.085C63.6018 257.799 64.8876 257.371 66.1019 256.656C71.888 253.156 72.6737 245.727 72.7452 244.441C72.5309 242.941 72.2451 240.727 72.0308 237.941C71.6737 234.226 71.6737 232.155 71.4594 227.655C71.1736 221.44 70.9593 218.368 70.7451 216.511C70.3165 213.583 69.5307 209.439 67.602 204.439C61.8874 205.725 56.2443 207.011 50.6011 208.297Z" fill="white" stroke="#010202" stroke-width="0.475351" stroke-miterlimit="10" stroke-linecap="round"/>
<path d="M84.6744 224.94C96.6036 238.084 108.604 251.299 120.533 264.442C121.176 263.157 122.391 260.371 122.248 256.585C122.034 252.585 120.391 249.799 119.605 248.584C118.533 247.084 116.962 244.727 115.247 241.727C113.604 238.87 113.176 237.727 110.176 231.441C106.604 224.012 105.604 222.369 104.104 220.583C102.318 218.369 100.604 216.868 99.3895 215.868C94.4606 218.94 89.5318 221.94 84.6744 224.94Z" fill="white" stroke="#010202" stroke-width="0.475351" stroke-miterlimit="10" stroke-linecap="round"/>
<path d="M143.606 156.08C143.463 157.365 143.392 158.723 143.392 160.151C143.32 164.652 143.749 168.652 144.392 172.081C154.892 165.366 165.322 158.651 175.822 151.937C174.679 148.079 172.822 146.365 171.608 145.508C165.464 141.579 153.821 145.293 143.606 156.08Z" fill="#39424E" stroke="#010202" stroke-width="0.475351" stroke-miterlimit="10" stroke-linecap="round"/>
<path d="M177.536 80.1469C175.608 81.7184 174.251 83.2899 173.465 84.5043C172.751 85.5043 169.893 89.6474 169.465 95.7192C169.393 97.0764 169.393 98.1479 169.465 99.0051C168.465 100.862 167.393 102.72 166.393 104.505C166.964 105.648 167.965 107.148 169.607 108.506C173.893 111.934 179.179 111.149 180.179 111.006C180.108 110.363 179.965 109.22 180.394 107.863C180.751 106.648 181.251 105.791 181.68 105.291C182.537 105.077 183.537 104.72 184.68 104.22C186.251 103.434 187.394 102.577 188.18 101.791C188.966 102.434 189.966 103.005 191.037 102.934C194.609 102.791 198.18 96.4335 197.538 91.0046C196.823 84.3614 189.966 79.8612 184.108 79.2897C181.251 79.004 178.965 79.6469 177.536 80.1469Z" fill="white" stroke="#010202" stroke-width="0.475351" stroke-miterlimit="10" stroke-linecap="round"/>
<path d="M175.108 205.511C174.608 209.582 174.108 213.725 173.679 217.797C173.608 220.44 175.394 222.726 177.679 223.083C179.465 223.44 181.322 222.583 182.537 221.012C182.822 219.297 183.18 217.583 183.537 215.797C184.18 212.654 184.823 209.511 185.465 206.511C181.965 206.225 178.537 205.868 175.108 205.511Z" fill="white" stroke="#010202" stroke-width="0.475351" stroke-miterlimit="10" stroke-linecap="round"/>
<path d="M198.109 215.083C198.609 220.083 199.18 225.155 199.68 230.155C199.752 230.369 201.109 235.441 205.324 236.441C206.752 236.798 207.967 236.584 208.824 236.298C208.109 232.226 207.467 227.583 207.252 222.512C207.038 218.797 207.109 215.297 207.252 212.154C204.181 213.154 201.109 214.083 198.109 215.083Z" fill="white" stroke="#010202" stroke-width="0.475351" stroke-miterlimit="10" stroke-linecap="round"/>
<path d="M219.324 111.577C220.039 111.363 221.11 111.006 222.11 110.077C222.467 109.792 222.896 109.291 223.825 107.649C224.682 106.077 225.253 104.863 225.468 104.363C226.968 101.005 227.182 99.5053 227.825 99.5053C228.325 99.5053 228.682 100.505 228.753 100.72C229.468 102.72 227.968 104.648 228.396 104.863C228.682 105.006 229.539 104.22 232.254 101.577C233.897 99.9339 235.182 98.7195 235.897 99.0767C235.968 99.0767 236.04 99.1481 236.04 99.2195C236.968 100.362 231.754 105.791 231.968 106.006C232.111 106.148 235.182 103.863 237.254 102.363C237.611 102.077 238.397 101.505 238.968 101.791C239.183 101.863 239.325 102.077 239.325 102.148C239.897 103.434 233.611 107.577 233.825 107.863C233.968 108.006 236.754 106.72 237.54 106.291C238.397 105.863 239.54 105.363 240.111 105.791C240.183 105.863 240.325 106.006 240.325 106.077C240.468 106.577 239.397 107.72 233.968 110.506C233.825 110.577 237.54 109.006 238.111 109.792C238.183 109.863 238.183 109.934 238.183 110.006C238.254 110.934 235.754 111.434 232.682 113.292C230.896 114.363 230.825 114.72 229.611 115.22C228.111 115.792 226.682 115.72 225.682 115.649C224.753 116.22 223.825 116.863 222.896 117.435C221.682 115.578 220.539 113.577 219.324 111.577Z" fill="white" stroke="#010202" stroke-width="0.475351" stroke-miterlimit="10" stroke-linecap="round"/>
<path d="M226.61 188.724C223.753 186.796 220.967 184.867 218.11 182.938C216.896 186.01 215.681 189.081 214.467 192.153C217.181 193.796 219.896 195.439 222.61 197.01C223.896 194.296 225.253 191.51 226.61 188.724Z" fill="#FCFDFD" stroke="#010202" stroke-width="0.475351" stroke-miterlimit="10" stroke-linecap="round"/>
<path d="M296.686 252.728C297.4 256.299 298.114 259.871 298.829 263.443C302.4 262.585 305.972 261.657 309.543 260.8C308.329 259.371 307.615 258.014 307.186 257.014C306.829 256.228 305.829 253.799 305.686 250.513C305.615 249.513 305.686 248.727 305.758 248.156C302.757 249.585 299.757 251.156 296.686 252.728Z" fill="#FCFDFD" stroke="#010202" stroke-width="0.475351" stroke-miterlimit="10" stroke-linecap="round"/>
<path d="M304.972 98.9337C305.186 100.362 305.329 102.22 305.258 104.363C305.115 106.791 304.757 108.791 304.472 109.863C303.615 113.149 302.115 119.149 297.186 121.863C296.257 122.364 295.471 122.578 294.971 122.721C294.828 123.221 294.686 123.935 294.686 124.792C294.686 125.364 294.828 125.864 294.971 126.221C294.543 126.721 293.9 127.435 292.9 128.007C289.971 129.65 285.614 129.078 283.113 126.364C281.256 124.364 280.971 121.935 280.971 121.006C281.613 120.149 282.542 118.649 283.042 116.577C283.613 114.22 283.328 112.22 283.113 111.149C282.756 109.934 282.113 106.72 283.471 103.148C285.828 96.9336 292.257 95.3621 292.685 95.2907C299.543 93.7906 304.615 98.5765 304.972 98.9337Z" fill="white" stroke="#010202" stroke-width="0.475351" stroke-miterlimit="10" stroke-linecap="round"/>
<path d="M332.473 113.006C332.973 112.792 333.688 112.363 334.188 111.649C334.688 110.934 334.759 110.363 335.116 109.077C335.688 106.791 335.973 105.648 336.688 105.077C337.116 104.72 338.045 104.22 339.974 104.506C340.402 104.22 341.402 103.506 342.759 103.506C344.188 103.506 345.831 104.148 346.474 105.434C346.545 105.577 346.474 105.506 346.903 107.149C347.403 109.006 347.403 109.006 347.474 109.292C347.545 110.149 347.403 110.792 347.045 112.22C346.688 113.649 346.474 114.363 346.045 114.863C345.331 115.649 344.474 115.649 343.045 116.006C342.045 116.292 340.902 116.935 338.545 118.292C337.259 119.006 335.688 120.006 333.902 121.221C333.402 118.506 332.973 115.72 332.473 113.006Z" fill="white" stroke="#010202" stroke-width="0.475351" stroke-miterlimit="10" stroke-linecap="round"/>
<path d="M253.969 84.5757C253.683 83.5756 253.326 82.0041 253.326 80.0754C253.326 78.0753 253.755 77.5753 253.969 75.2894C254.041 74.0751 254.183 71.9321 253.54 69.5034C253.04 67.6462 252.326 65.2175 250.397 64.5032C249.112 64.0746 247.897 64.5031 247.254 64.7889C247.04 64.5746 246.326 64.0746 245.326 64.0746C243.826 64.0746 242.897 65.2175 242.754 65.3603C242.54 65.3603 241.468 65.3603 240.683 66.1461C239.897 67.0033 239.683 68.2891 240.254 69.5034C239.683 70.0749 239.468 70.6463 239.325 70.9321C238.825 72.575 239.611 74.5037 240.754 75.5752C241.397 76.1466 241.683 76.1466 242.111 76.7181C242.611 77.5753 242.397 78.1467 242.754 79.0039C242.968 79.504 243.469 80.2183 244.683 80.7897C244.754 82.7184 244.897 84.6471 244.969 86.5758C247.897 85.8614 250.897 85.2185 253.969 84.5757Z" fill="white" stroke="#010202" stroke-width="0.475351" stroke-miterlimit="10" stroke-linecap="round"/>
<path d="M293.257 99.648C295.114 99.2908 296.114 101.219 298.329 102.362C301.186 103.862 305.115 103.505 307.829 101.72C308.543 101.219 310.186 100.005 311.258 97.3621C310.258 97.5764 308.758 97.7193 307.186 97.1478C305.186 96.5049 304.757 95.362 302.329 93.5048C300.9 92.4333 298.614 90.7189 295.614 90.2189C293.471 89.8617 291.471 90.2903 289.971 90.8618C288.971 90.9332 287.399 91.2189 285.828 92.219C283.042 93.9334 282.113 96.7192 281.328 98.9336C280.113 102.434 280.328 105.363 280.47 107.005C280.47 107.363 280.685 109.291 281.542 111.72C282.185 113.434 282.542 114.506 283.185 114.577C284.256 114.72 285.899 112.22 285.399 110.506C285.185 109.934 284.899 109.934 284.542 109.148C284.042 108.148 283.542 106.22 284.685 105.077C285.399 104.291 286.685 103.934 287.614 104.363C288.899 105.005 288.828 107.005 289.257 107.005C289.828 106.934 289.185 102.791 291.542 100.577C291.9 100.362 292.471 99.7908 293.257 99.648Z" fill="#010202"/>
<path d="M298.043 259.371C298.9 259.514 299.829 259.657 300.972 259.657C303.972 259.657 306.329 258.656 307.758 257.942C310.472 259.942 312.829 260.871 314.472 261.299C314.472 261.299 322.901 263.442 323.901 264.943C324.901 266.443 323.758 268.443 321.973 268.443H298.329C298.257 265.443 298.186 262.442 298.043 259.371Z" fill="#191C3C" stroke="#010202" stroke-width="0.475351" stroke-miterlimit="10" stroke-linecap="round"/>
<path d="M221.325 185.153C220.467 185.867 219.467 186.867 218.539 188.224C217.181 190.153 216.539 192.01 216.253 193.296C215.538 195.367 214.61 196.868 213.896 197.939C212.681 199.796 211.11 202.011 208.252 203.225C206.824 203.796 206.109 204.082 205.538 203.796C203.324 202.439 207.181 193.01 209.538 187.367C211.967 181.51 212.967 180.51 214.253 180.295C217.681 179.509 221.11 184.795 221.325 185.153Z" fill="#191C3C" stroke="#010202" stroke-width="0.475351" stroke-miterlimit="10" stroke-linecap="round"/>
<path d="M79.174 94.862C79.1026 96.2907 79.0311 98.4337 79.3883 100.934C79.8169 104.505 80.1741 107.506 82.3885 110.077C83.8171 111.792 85.5315 112.72 86.8173 113.22C86.8173 114.649 86.8173 116.149 86.8173 117.578C87.2459 117.935 89.746 119.792 93.1747 119.292C97.5321 118.649 99.3894 114.577 99.5322 114.292C99.3179 113.22 99.1751 112.077 99.1036 110.863C98.9608 108.434 99.1036 106.291 99.3894 104.505C99.818 104.434 100.604 104.148 101.318 103.434C101.461 103.291 102.89 101.791 102.247 100.148C101.818 99.0765 100.604 98.3622 99.2465 98.4337C97.7464 97.7193 96.1749 96.9336 94.532 96.005C91.1032 94.0763 88.1745 92.0047 85.7458 90.0046C84.96 90.9333 83.8171 92.0047 82.3885 93.0048C81.1741 93.862 80.1026 94.4334 79.174 94.862Z" fill="white" stroke="#010202" stroke-width="0.475351" stroke-miterlimit="10" stroke-linecap="round"/>
<path d="M49.0296 132.364C48.601 132.15 48.0296 131.721 47.4581 131.078C46.3866 129.864 46.5295 129.007 45.7437 127.65C45.458 127.15 44.4579 125.507 42.4578 124.649C41.815 124.364 40.172 123.649 38.4576 124.364C36.4575 125.221 35.1718 127.864 35.8861 129.364C36.1004 129.721 36.3861 130.007 36.6718 130.15C36.2432 130.935 36.2432 131.864 36.6718 132.578C37.2433 133.578 38.3862 133.65 38.4576 133.65C38.6719 135.007 39.172 135.793 39.5291 136.221C39.7434 136.507 40.3863 137.15 43.6008 138.364C44.6008 138.722 45.3866 139.007 45.958 139.15C47.101 136.936 48.0296 134.65 49.0296 132.364Z" fill="white" stroke="#010202" stroke-width="0.475351" stroke-miterlimit="10" stroke-linecap="round"/>
<path d="M62.5302 250.942C63.316 251.513 64.0303 251.728 64.6017 251.728C67.5305 251.942 70.7449 248.156 72.4593 242.37C72.8165 242.799 73.3165 243.441 73.7451 244.37C74.388 245.727 74.4594 246.942 74.4594 247.442C74.6023 249.942 73.5308 252.013 72.745 253.942C71.0307 258.085 71.745 258.657 70.6021 261.442C68.2448 267.228 62.3873 272.014 60.4587 270.943C59.03 270.157 59.6729 266.3 60.8158 259.157C61.3873 255.728 62.0302 252.871 62.5302 250.942Z" fill="#010202"/>
<path d="M116.676 260.228C118.105 260.585 118.89 260.371 119.319 260.085C121.391 258.871 121.676 254.299 119.533 248.584C120.462 248.799 122.034 249.299 123.248 250.513C123.605 250.87 124.534 251.87 125.819 255.799C126.462 257.728 126.462 258.299 126.962 260.514C128.177 265.3 128.82 265.443 129.034 267.514C129.391 270.943 128.248 275.3 126.462 275.657C125.105 276.015 122.319 273.586 116.676 260.228Z" fill="#010202"/>
<path d="M77.1738 164.366C76.4595 165.151 75.3166 166.294 73.8879 167.723C70.1734 171.438 68.6019 172.58 63.6731 177.081C58.9586 181.295 61.8159 179.009 54.6012 185.867C54.1012 186.367 52.1011 188.224 50.2438 191.153C48.7438 193.439 48.3866 194.796 48.2437 195.296C47.7437 197.51 48.0294 199.296 48.3151 200.725C49.6009 206.797 52.3868 214.154 53.0297 215.868C54.7441 216.226 56.887 216.44 59.4586 216.297C64.2446 216.011 67.8876 214.44 70.0306 213.297C69.1734 208.582 68.3876 203.796 67.5304 199.082C71.2449 197.296 74.888 195.51 78.6025 193.724C76.9595 196.653 75.888 199.225 75.1737 201.153C73.9594 204.511 73.6736 206.297 73.5308 207.297C73.4593 208.082 73.3165 209.511 73.4593 210.94C73.7451 213.868 75.3166 216.154 77.531 218.726C79.674 221.297 83.1027 224.869 88.0315 228.726C89.3888 228.083 90.8174 227.369 92.2461 226.512C96.4606 224.083 99.8893 221.44 102.604 218.94C101.389 217.583 100.032 216.154 98.4607 214.654C96.4606 212.797 94.6033 211.154 92.7461 209.797C96.8177 205.725 100.175 202.153 102.747 199.368C106.104 195.725 107.604 193.867 109.176 191.296C110.247 189.51 111.961 186.724 112.819 183.581C114.747 176.438 111.461 169.652 109.819 166.723C98.9607 165.937 88.0315 165.151 77.1738 164.366Z" fill="#576871" stroke="#010202" stroke-width="0.475351" stroke-miterlimit="10" stroke-linecap="round"/>
<path d="M86.8888 115.149C85.603 115.72 83.6743 116.649 81.7456 118.22C81.1027 118.72 80.317 119.435 79.4598 120.363C77.8883 122.22 77.3883 124.006 76.5311 126.649C75.031 131.507 74.2452 134.007 73.9595 134.507C72.888 136.793 71.3165 140.007 68.2449 141.007C66.5305 141.579 64.8162 141.221 62.7446 140.579C59.673 139.579 54.6728 137.364 48.9582 132.364C47.601 134.935 46.2438 137.507 44.8865 140.079C46.1009 142.079 47.8867 144.936 50.244 148.15C54.0299 153.294 55.8871 155.865 59.1016 158.151C60.9588 159.437 64.959 162.151 70.5308 162.223C72.4594 162.223 74.0309 161.937 75.1739 161.651C75.3167 163.08 75.531 164.508 75.6739 165.937C77.174 166.937 78.674 167.723 80.0312 168.366C92.1748 173.795 104.89 168.866 109.747 166.723C109.176 165.866 108.533 164.794 108.033 163.651C106.461 160.222 106.033 157.008 105.961 154.651C107.176 157.722 108.89 159.722 109.961 160.794C111.676 162.508 113.819 164.58 116.962 164.723C119.605 164.794 121.533 163.437 122.105 163.008C123.105 162.294 125.534 160.222 126.534 153.936C128.177 144.079 124.462 135.578 122.248 130.864C120.391 126.721 119.176 124.078 116.462 121.292C110.461 115.006 102.675 113.72 99.2466 113.363C96.9607 116.72 93.3177 118.363 90.2461 117.506C88.6746 117.006 87.5317 115.934 86.8888 115.149Z" fill="#576871" stroke="#010202" stroke-width="0.475351" stroke-miterlimit="10" stroke-linecap="round"/>
<path opacity="0.17" d="M74.531 155.58C73.6024 156.223 72.6737 156.651 71.8165 156.937C61.9589 160.223 50.5297 148.151 49.2439 146.722C49.8154 147.579 50.4582 148.722 51.3869 149.937C51.744 150.437 52.8869 151.937 54.2442 153.437C56.3871 155.794 58.8158 158.437 62.816 160.294C63.8875 160.794 65.8877 161.723 68.7449 162.08C71.5308 162.437 73.8166 162.009 75.2453 161.652C74.9596 159.651 74.7453 157.58 74.531 155.58Z" fill="#010202"/>
<path d="M103.033 136.007C102.318 136.079 100.604 136.221 99.2466 137.579C98.1037 138.65 97.818 139.936 97.6751 140.579C97.5322 141.365 97.1036 143.436 98.2465 144.293C98.9609 144.793 99.8895 144.579 100.318 144.508C100.39 144.722 100.747 145.293 101.461 145.651C102.175 146.008 102.89 145.865 103.104 145.865C103.318 146.222 103.818 146.936 104.675 147.293C106.533 148.151 108.533 146.936 109.033 146.651C110.819 145.579 111.462 143.793 111.676 143.222C111.533 142.365 111.247 140.865 110.104 139.436C108.461 137.222 105.747 135.793 103.033 136.007Z" fill="white" stroke="#010202" stroke-width="0.475351" stroke-miterlimit="10" stroke-linecap="round"/>
<path d="M111.604 143.15C112.962 144.008 114.39 145.079 115.89 146.436C118.533 148.794 120.391 151.222 121.676 153.222" stroke="#010202" stroke-width="0.475351" stroke-miterlimit="10" stroke-linecap="round"/>
<path d="M104.604 147.222C105.033 149.722 105.533 152.151 105.961 154.651" stroke="#010202" stroke-width="0.475351" stroke-miterlimit="10" stroke-linecap="round"/>
<path d="M78.6027 131.078C77.3884 134.578 76.2455 138.793 75.5311 143.579C74.1739 152.508 74.7454 160.223 75.674 165.866" stroke="#010202" stroke-width="0.475351" stroke-miterlimit="10" stroke-linecap="round"/>
<path opacity="0.17" d="M85.2459 181.51C84.1744 183.01 82.96 184.581 81.6028 186.153C76.9597 191.653 72.0309 195.867 67.5306 199.082C71.2451 197.296 74.8882 195.51 78.6027 193.725C80.8171 189.653 83.0315 185.581 85.2459 181.51Z" fill="#010202"/>
<path opacity="0.17" d="M106.676 168.009C107.747 169.866 109.104 172.866 109.533 176.724C110.319 183.867 107.247 189.367 104.033 195.224C101.961 199.01 98.4608 204.368 92.8176 209.797C98.2465 204.654 102.532 199.939 105.604 196.153C108.461 192.653 111.176 189.153 112.604 184.367C113.604 181.081 113.533 178.724 113.462 177.795C113.319 175.223 112.604 173.223 112.104 171.652C111.39 169.58 110.533 167.937 109.819 166.723C108.747 167.152 107.747 167.58 106.676 168.009Z" fill="#010202"/>
<path d="M86.8173 113.292C87.3173 113.435 87.8888 113.577 88.5317 113.577C91.5319 113.649 93.6748 111.577 94.3177 110.934" stroke="#010202" stroke-width="0.475351" stroke-miterlimit="10" stroke-linecap="round"/>
<path d="M172.608 76.3612C171.965 76.4326 170.965 76.7184 169.965 77.4327C167.965 79.0042 166.965 82.1472 168.322 84.5759C169.322 86.4332 171.25 87.0046 171.822 87.1475C172.108 86.2903 172.751 84.9331 174.036 83.6473C175.536 82.0758 177.251 81.3615 178.108 81.0757C178.394 81.4329 178.822 82.0043 179.465 82.5044C180.037 83.0044 181.108 83.8616 182.751 84.1473C184.608 84.5045 186.18 83.7902 186.751 83.5044C186.68 84.1473 186.608 85.3617 187.18 86.7903C188.251 89.2904 190.68 90.0762 191.109 90.2191C190.751 90.6477 189.966 91.7191 189.751 93.3621C189.537 95.2193 190.18 96.5766 190.466 97.0766C190.537 97.0052 191.537 96.5051 192.466 97.0051C193.394 97.5052 193.537 98.6481 193.466 99.3624C193.252 100.648 192.037 101.291 191.609 101.577C190.109 102.363 188.537 101.934 188.109 101.791C187.537 102.291 186.966 102.72 186.323 103.22C186.537 103.648 187.18 104.648 188.323 105.291C188.394 105.363 190.823 106.577 193.037 105.22C194.466 104.363 194.895 102.934 195.037 102.505C195.609 102.648 196.68 102.863 197.966 102.577C200.038 102.077 201.966 100.362 202.395 97.9338C202.752 95.7908 201.681 94.0764 201.395 93.6478C202.109 93.3621 203.395 92.7906 204.395 91.5049C206.038 89.3619 206.467 86.0046 204.752 83.6473C203.538 81.9329 201.752 81.3615 201.038 81.2186C201.323 80.5757 201.895 79.147 201.681 77.2898C201.609 76.5755 201.395 74.3611 199.609 72.9324C197.109 70.9323 193.68 72.1467 193.537 72.2181C193.394 71.5752 192.966 69.9323 191.466 68.7179C188.966 66.6464 185.751 67.7179 185.466 67.7893C183.823 68.3608 182.894 69.4323 182.465 69.9323C180.322 68.7894 177.679 68.9322 175.679 70.218C173.608 71.5752 172.393 73.9325 172.608 76.3612Z" fill="#010202"/>
<path d="M133.82 74.9324C136.391 73.5038 138.963 72.0751 141.535 70.7179C142.177 72.5751 143.177 75.361 144.606 78.5754C147.463 85.0044 149.821 90.2904 154.607 94.7192C156.75 96.7193 160.964 100.005 167.893 101.862C168.179 102.862 168.679 103.934 169.465 104.863C172.822 109.077 178.894 108.577 179.679 108.506C181.18 109.506 183.323 110.791 185.965 112.149C188.466 113.434 190.966 114.72 193.752 115.435C197.752 116.435 200.895 116.006 205.824 115.22C209.395 114.649 214.396 113.577 220.182 111.291C221.682 113.434 223.182 115.577 224.682 117.72C223.253 118.72 221.253 120.149 218.682 121.721C213.896 124.649 208.395 128.007 201.181 129.935C197.538 130.935 191.68 132.007 184.251 131.293C183.751 132.864 183.394 134.721 183.251 136.793C182.894 143.793 186.037 149.079 187.608 151.365C182.965 150.508 176.394 149.936 168.75 151.079C155.321 153.079 145.963 159.365 141.32 162.937C139.749 159.723 138.249 155.722 137.534 151.008C134.963 134.293 143.606 120.935 146.535 116.863C144.749 114.363 142.963 111.506 141.392 108.291C134.82 95.5764 133.677 83.2186 133.82 74.9324Z" fill="#41446B" stroke="#010202" stroke-width="0.475351" stroke-miterlimit="10" stroke-linecap="round"/>
<path d="M192.966 157.008C193.823 156.58 197.609 154.865 201.752 156.365C202.538 156.651 204.752 157.508 206.252 159.723C207.395 161.366 207.61 163.08 207.681 163.794C208.11 167.723 208.181 188.224 207.752 216.154C206.895 216.583 205.824 216.94 204.609 217.226C201.609 217.869 198.966 217.44 197.466 217.083C196.466 213.011 195.609 208.725 194.752 204.368C193.18 196.225 191.966 188.439 191.109 181.081C191.752 173.081 192.394 165.08 192.966 157.008Z" fill="#39424E" stroke="#010202" stroke-width="0.475351" stroke-miterlimit="10" stroke-linecap="round"/>
<path d="M143.535 166.009C145.106 164.866 146.892 163.651 149.035 162.58C152.821 160.58 156.392 159.508 159.25 158.865C164.25 154.508 168.822 151.222 172.322 148.794C174.322 147.436 181.108 142.793 188.823 141.293C189.966 141.079 191.823 140.793 193.68 141.579C197.252 143.079 198.395 147.151 198.538 147.651C199.109 149.794 198.823 151.579 198.752 152.151C197.895 156.865 192.894 179.367 185.68 210.011C184.537 210.368 183.037 210.725 181.251 210.725C177.394 210.725 174.465 209.225 173.108 208.368C173.965 202.511 174.822 196.582 175.679 190.724C175.036 191.153 174.179 191.724 173.036 192.296C165.322 195.796 153.464 193.224 147.249 185.081C141.177 177.081 143.177 167.509 143.535 166.009Z" fill="#39424E" stroke="#010202" stroke-width="0.475351" stroke-miterlimit="10" stroke-linecap="round"/>
<path d="M174.179 213.511C173.536 213.94 172.679 214.654 172.108 215.797C171.536 216.94 171.608 217.94 171.822 220.869C172.036 223.726 172.108 225.155 172.179 225.512C172.822 230.226 173.179 233.369 174.893 236.87C175.751 238.727 177.394 241.941 179.679 242.013C179.679 242.013 180.322 242.013 180.965 241.727C184.251 240.227 183.108 223.512 182.822 219.154C182.465 219.654 181.251 221.297 179.608 221.369C177.322 221.44 174.608 218.44 174.179 213.511Z" fill="#010202"/>
<path d="M199.109 224.726C198.538 225.298 197.823 226.155 197.323 227.441C196.609 229.369 196.966 231.155 197.609 233.441C198.466 236.37 199.538 239.227 201.752 243.656C203.966 248.084 205.038 249.656 206.895 250.942C207.824 251.585 209.395 252.656 210.538 252.085C212.467 251.156 211.753 246.156 211.324 243.584C210.967 241.156 210.252 237.727 208.324 233.727C207.609 234.584 206.895 234.869 206.395 234.869C204.038 235.084 201.038 231.084 199.109 224.726Z" fill="#010202"/>
<path opacity="0.17" d="M156.107 191.867C157.678 192.01 159.393 192.01 161.25 191.724C170.108 190.367 175.536 183.51 177.251 181.152C176.679 184.367 176.179 187.581 175.608 190.724C174.108 191.724 171.536 193.082 168.107 193.653C162.464 194.582 157.893 192.725 156.107 191.867Z" fill="#010202"/>
<path d="M180.108 164.294C179.537 165.652 178.751 167.866 178.108 170.58C176.894 175.938 177.251 179.009 176.608 185.153C176.394 187.438 175.965 190.724 175.108 194.796" stroke="#010202" stroke-width="0.475351" stroke-miterlimit="10" stroke-linecap="round"/>
<path d="M169.465 99.0052C169.607 99.791 170.179 101.934 172.036 103.577C175.179 106.363 179.322 105.434 179.751 105.291" stroke="#010202" stroke-width="0.475351" stroke-miterlimit="10" stroke-linecap="round"/>
<path d="M227.682 107.22C227.896 107.648 228.182 108.434 228.111 109.506C228.039 111.006 227.325 111.934 227.039 112.292" stroke="#010202" stroke-width="0.475351" stroke-miterlimit="10" stroke-linecap="round"/>
<path d="M260.755 165.509C254.183 177.009 247.612 188.438 241.04 199.939C239.683 198.439 238.254 196.939 236.611 195.439C232.968 192.01 229.325 189.296 226.039 187.224C225.11 187.795 223.968 188.653 222.896 189.938C220.467 192.796 219.896 196.01 219.753 197.439C225.468 204.796 231.111 209.868 235.254 213.225C243.04 219.44 245.683 219.511 246.683 219.511C251.112 219.369 253.826 215.797 262.541 205.296C265.684 201.51 270.184 196.153 275.685 189.653C279.47 200.296 282.542 209.368 284.828 216.226C288.828 228.155 290.114 232.798 291.185 236.584C293.328 244.513 294.757 251.227 295.614 255.942C297.186 255.942 299.257 255.871 301.614 255.299C304.757 254.585 307.186 253.299 308.758 252.299C307.829 240.584 306.758 230.798 305.829 223.512C303.972 208.368 302.829 199.368 299.757 187.653C297.471 178.795 294.9 171.723 293.043 166.937C282.185 166.366 271.47 165.937 260.755 165.509Z" fill="#575A8F" stroke="#010202" stroke-width="0.475351" stroke-miterlimit="10" stroke-linecap="round"/>
<path d="M244.04 84.7187C244.969 84.5759 245.897 84.433 246.969 84.1473C249.397 83.5758 251.612 82.8615 253.398 82.0758C253.826 84.0044 254.541 86.7189 255.612 89.8619C257.326 94.7907 259.827 101.934 265.47 108.863C268.041 112.006 272.899 117.078 280.756 121.078C281.256 124.078 283.471 126.578 286.399 127.507C289.257 128.435 292.471 127.65 294.686 125.578C296.186 125.721 298.329 125.792 300.9 125.507C300.9 125.507 304.615 125.149 308.901 123.792C313.829 122.221 322.187 118.292 332.188 112.077C332.759 112.792 333.759 114.22 334.259 116.22C334.759 118.149 334.616 119.721 334.473 120.649C332.83 122.506 330.973 124.435 328.973 126.364C319.758 134.793 309.758 139.222 302.186 141.65C301.686 143.365 300.9 146.008 300.043 149.151C298.9 153.151 298.329 155.151 298.043 156.365C297.4 159.08 296.757 163.151 296.9 168.437C294.114 169.723 290.757 170.866 286.899 171.581C273.47 174.224 262.255 170.223 256.755 167.795C257.184 162.08 258.112 155.58 259.755 148.579C260.827 143.865 262.112 139.579 263.47 135.721C261.041 133.078 258.684 130.078 256.398 126.65C245.969 111.149 244.183 94.6478 244.04 84.7187Z" fill="#474963" stroke="#010202" stroke-width="0.475351" stroke-miterlimit="10" stroke-linecap="round"/>
<path d="M279.542 120.435C279.399 121.435 279.328 122.578 279.47 123.864C280.042 129.221 283.542 132.793 284.971 134.078C286.042 132.007 287.114 129.935 288.185 127.935C287.185 127.435 285.399 126.507 283.756 124.578C282.399 122.935 281.685 121.292 281.328 120.292C280.828 120.363 280.185 120.435 279.542 120.435Z" fill="white" stroke="#010202" stroke-width="0.475351" stroke-miterlimit="10" stroke-linecap="round"/>
<path d="M288.828 127.935C289.757 130.15 290.685 132.293 291.685 134.507C292.186 134.221 292.686 133.864 293.186 133.364C295.971 130.793 296.043 126.935 295.971 125.721C295.543 125.721 295.114 125.65 294.686 125.65C294.114 126.15 293.114 127.007 291.614 127.507C290.471 127.935 289.471 127.935 288.828 127.935Z" fill="white" stroke="#010202" stroke-width="0.475351" stroke-miterlimit="10" stroke-linecap="round"/>
<path d="M244.183 88.2904C245.111 88.2904 246.112 88.2904 247.183 88.1475C250.255 87.7903 252.755 86.8617 254.469 85.9331C254.112 84.6473 253.826 83.3615 253.469 82.0758C252.183 82.7186 250.612 83.3615 248.754 83.8616C247.04 84.3616 245.469 84.5759 244.183 84.7187C244.111 85.9331 244.111 87.076 244.183 88.2904Z" fill="white" stroke="#010202" stroke-width="0.475351" stroke-miterlimit="10" stroke-linecap="round"/>
<path d="M330.116 113.434C330.544 114.077 331.045 114.792 331.402 115.649C332.687 118.435 332.83 121.078 332.759 122.721C333.616 121.935 334.402 121.078 335.259 120.292C335.188 119.363 335.045 118.292 334.688 117.006C334.045 114.792 333.045 113.149 332.259 112.149C331.545 112.577 330.83 113.006 330.116 113.434Z" fill="white" stroke="#010202" stroke-width="0.475351" stroke-miterlimit="10" stroke-linecap="round"/>
<path d="M256.541 172.938C259.326 173.795 262.112 174.652 264.97 175.509C264.47 176.938 263.684 178.938 262.327 181.152C260.541 184.01 259.398 185.938 257.184 186.581C254.183 187.51 251.255 185.51 250.469 184.938" stroke="#010202" stroke-width="0.475351" stroke-miterlimit="10" stroke-linecap="round"/>
<path d="M274.542 190.724C275.685 189.439 276.756 188.153 277.899 186.867" stroke="#010202" stroke-width="0.475351" stroke-miterlimit="10" stroke-linecap="round"/>
<path d="M242.397 197.51C241.54 198.939 240.754 200.368 239.897 201.796" stroke="#010202" stroke-width="0.475351" stroke-miterlimit="10" stroke-linecap="round"/>
<path d="M288.828 127.935C288.328 131.793 287.828 135.793 287.185 139.793C285.399 151.436 283.042 162.366 280.471 172.58" stroke="#010202" stroke-width="0.475351" stroke-miterlimit="10" stroke-linecap="round"/>
<path d="M286.685 118.22C287.114 119.006 288.971 121.863 292.328 122.578C293.328 122.792 294.185 122.792 294.9 122.721" stroke="#010202" stroke-width="0.475351" stroke-miterlimit="10" stroke-linecap="round"/>
<path opacity="0.17" d="M286.685 118.22C286.756 119.006 286.971 120.649 288.114 122.149C290.4 125.149 294.185 125.221 294.614 125.221C294.543 124.935 294.4 124.435 294.471 123.792C294.543 123.292 294.685 122.935 294.828 122.721C294.043 122.792 292.471 122.792 290.685 122.006C288.257 121.006 287.042 118.935 286.685 118.22Z" fill="#010202"/>
<path d="M301.757 211.297C301.686 211.868 301.543 212.511 301.257 213.225C300.9 214.083 300.543 214.797 300.186 215.368" stroke="#010202" stroke-width="0.475351" stroke-miterlimit="10" stroke-linecap="round"/>
<path d="M81.4599 99.0052C81.8939 99.0052 82.2457 98.6534 82.2457 98.2195C82.2457 97.7855 81.8939 97.4337 81.4599 97.4337C81.0259 97.4337 80.6741 97.7855 80.6741 98.2195C80.6741 98.6534 81.0259 99.0052 81.4599 99.0052Z" fill="#010202"/>
<path d="M90.6747 99.0052C91.1087 99.0052 91.4605 98.6534 91.4605 98.2195C91.4605 97.7855 91.1087 97.4337 90.6747 97.4337C90.2408 97.4337 89.889 97.7855 89.889 98.2195C89.889 98.6534 90.2408 99.0052 90.6747 99.0052Z" fill="#010202"/>
<path d="M84.2457 100.148L84.0314 102.934C83.96 103.577 84.5315 104.148 85.1744 104.148H86.3173" stroke="#010202" stroke-width="0.475351" stroke-miterlimit="10" stroke-linecap="round"/>
<path d="M83.1743 106.434C83.9601 106.72 85.1744 107.006 86.7459 106.934C88.4603 106.863 89.8175 106.363 90.6033 106.005C90.2461 107.648 88.8175 108.934 87.1745 109.077C85.4602 109.148 83.7458 108.077 83.1743 106.434Z" fill="white" stroke="#010202" stroke-width="0.475351" stroke-miterlimit="10" stroke-linecap="round"/>
<path d="M86.3887 110.149C86.5316 110.22 86.8173 110.363 87.1745 110.363C87.6745 110.363 88.0317 110.149 88.1745 110.077" stroke="#010202" stroke-width="0.475351" stroke-miterlimit="10" stroke-linecap="round"/>
<path d="M89.7461 96.0762C89.7461 96.0048 90.0318 95.5762 90.5319 95.5048C91.0319 95.4333 91.5319 95.7191 91.8176 96.2191" stroke="#010202" stroke-width="0.475351" stroke-miterlimit="10" stroke-linecap="round"/>
<path d="M82.46 96.0762C82.46 96.0048 82.1743 95.5762 81.6742 95.5048C81.1742 95.4333 80.6742 95.7191 80.3884 96.2191" stroke="#010202" stroke-width="0.475351" stroke-miterlimit="10" stroke-linecap="round"/>
<path d="M101.747 140.65C101.461 140.936 101.032 141.365 100.747 142.007C100.175 143.222 100.461 144.365 100.532 144.722" stroke="#010202" stroke-width="0.475351" stroke-miterlimit="10" stroke-linecap="round"/>
<path d="M105.033 142.793C104.747 142.936 104.461 143.15 104.104 143.436C103.247 144.293 103.104 145.365 103.033 145.793" stroke="#010202" stroke-width="0.475351" stroke-miterlimit="10" stroke-linecap="round"/>
<path d="M36.8146 130.221C36.9575 129.864 37.2432 129.507 37.6004 129.078C38.3862 128.15 39.3862 127.721 39.8862 127.507" stroke="#010202" stroke-width="0.475351" stroke-miterlimit="10" stroke-linecap="round"/>
<path d="M38.6005 133.721C38.672 133.293 38.8863 132.578 39.3863 131.793C40.0292 130.864 40.8864 130.507 41.2435 130.364" stroke="#010202" stroke-width="0.475351" stroke-miterlimit="10" stroke-linecap="round"/>
<path d="M99.2464 99.7195C99.3893 99.6481 100.032 99.5052 100.604 99.8624C101.318 100.362 101.247 101.505 100.818 102.22C100.318 103.077 99.3179 103.22 99.175 103.22" stroke="#010202" stroke-width="0.475351" stroke-miterlimit="10" stroke-linecap="round"/>
<path opacity="0.17" d="M86.8887 115.149C87.5316 115.22 88.3888 115.22 89.3888 115.006C92.5318 114.292 94.0319 111.434 94.3176 110.863C93.8176 111.363 92.8176 112.363 91.1746 113.006C89.1745 113.72 87.4601 113.434 86.7458 113.22C86.8172 113.863 86.8173 114.506 86.8887 115.149Z" fill="#010202"/>
<path d="M83.8885 180.152C83.9599 180.366 84.0314 180.652 84.3171 180.938C84.6028 181.295 84.96 181.509 85.1743 181.581" stroke="#010202" stroke-width="0.475351" stroke-miterlimit="10" stroke-linecap="round"/>
<path opacity="0.17" d="M184.18 131.364C184.322 130.935 184.537 130.292 184.894 129.65C185.108 129.292 185.394 128.935 185.608 128.649C187.466 129.007 189.466 129.292 191.68 129.435C203.966 130.078 213.753 124.935 219.11 121.435C212.538 126.078 206.681 128.292 202.895 129.435C199.18 130.578 196.252 131.007 195.394 131.15C190.823 131.864 186.965 131.65 184.18 131.364Z" fill="#010202"/>
<path opacity="0.29" d="M192.323 141.936C192.895 142.079 193.68 142.436 194.466 143.007C195.966 144.079 196.609 145.508 197.038 146.365C197.966 148.365 197.966 150.151 197.966 151.079C197.966 152.794 197.609 154.151 197.323 155.008" stroke="white" stroke-width="0.475351" stroke-miterlimit="10" stroke-linecap="round"/>
<path d="M173.393 94.005C174.036 94.7907 174.822 95.6479 175.894 96.5051C177.822 98.0766 179.751 98.9338 181.18 99.4338C179.322 101.077 176.536 101.077 174.751 99.5767C173.108 98.2195 172.608 96.0051 173.393 94.005Z" fill="white" stroke="#010202" stroke-width="0.475351" stroke-miterlimit="10" stroke-linecap="round"/>
<path d="M173.393 100.077C173.465 100.291 173.679 100.577 173.965 100.862C174.251 101.148 174.465 101.291 174.679 101.434" stroke="#010202" stroke-width="0.475351" stroke-miterlimit="10" stroke-linecap="round"/>
<path d="M176.965 92.2906C176.894 92.5048 176.822 92.9334 177.036 93.4335C177.394 94.2907 178.179 94.5764 178.322 94.5764" stroke="#010202" stroke-width="0.475351" stroke-miterlimit="10" stroke-linecap="round"/>
<path d="M177.108 87.1474C177.502 87.1474 177.822 86.8276 177.822 86.4331C177.822 86.0386 177.502 85.7188 177.108 85.7188C176.713 85.7188 176.393 86.0386 176.393 86.4331C176.393 86.8276 176.713 87.1474 177.108 87.1474Z" fill="#010202"/>
<path d="M185.823 94.5765C186.217 94.5765 186.537 94.2567 186.537 93.8622C186.537 93.4676 186.217 93.1478 185.823 93.1478C185.428 93.1478 185.108 93.4676 185.108 93.8622C185.108 94.2567 185.428 94.5765 185.823 94.5765Z" fill="#010202"/>
<path d="M186.608 91.2904C186.68 91.2904 187.18 91.3618 187.537 91.7904C187.894 92.2904 187.823 92.7905 187.751 92.8619" stroke="#010202" stroke-width="0.475351" stroke-miterlimit="10" stroke-linecap="round"/>
<path d="M179.179 85.3616C179.179 85.2902 179.036 84.7902 178.608 84.5045C178.108 84.2187 177.536 84.3616 177.465 84.433" stroke="#010202" stroke-width="0.475351" stroke-miterlimit="10" stroke-linecap="round"/>
<path d="M190.823 97.7195C190.966 97.7195 191.609 97.7195 191.966 98.1481C192.466 98.7195 192.037 99.6482 191.752 100.077C191.037 101.005 189.823 101.005 189.609 101.005C189.109 101.005 188.68 100.791 188.466 100.72" stroke="#010202" stroke-width="0.475351" stroke-miterlimit="10" stroke-linecap="round"/>
<path d="M175.036 97.6478C175.393 98.0049 175.894 98.3621 176.394 98.7192C177.751 99.5764 179.037 99.9336 179.965 100.148" stroke="#010202" stroke-width="0.475351" stroke-miterlimit="10" stroke-linecap="round"/>
<path d="M169.393 79.2185C169.179 79.5757 168.822 80.1471 168.607 80.8614C168.465 81.3615 168.25 82.6472 168.965 84.0045C169.607 85.2902 170.75 85.8617 171.108 86.076" stroke="#F3F7F7" stroke-width="0.475351" stroke-miterlimit="10" stroke-linecap="round"/>
<path d="M173.893 74.3609C174.036 73.9323 174.251 73.1466 174.822 72.3608C175.108 72.0036 175.965 71.0036 177.394 70.575C178.322 70.2893 179.179 70.3607 179.679 70.4321" stroke="#F3F7F7" stroke-width="0.475351" stroke-miterlimit="10" stroke-linecap="round"/>
<path d="M183.68 69.7895C183.965 69.5037 184.465 69.0751 185.18 68.718C185.608 68.5037 186.751 68.0037 188.251 68.2894C189.18 68.4323 189.894 68.8608 190.323 69.0751" stroke="#F3F7F7" stroke-width="0.475351" stroke-miterlimit="10" stroke-linecap="round"/>
<path d="M194.18 72.9323C194.609 72.7894 195.395 72.6466 196.323 72.718C196.823 72.7894 198.18 72.9323 199.252 74.0038C200.038 74.861 200.252 75.7896 200.323 76.2896" stroke="#F3F7F7" stroke-width="0.475351" stroke-miterlimit="10" stroke-linecap="round"/>
<path d="M247.183 64.7176C246.754 65.1462 246.183 65.6462 245.683 66.3606C244.754 67.6463 244.397 68.9321 244.254 69.7893" stroke="#010202" stroke-width="0.475351" stroke-miterlimit="10" stroke-linecap="round"/>
<path d="M242.683 65.2176C242.397 65.7176 241.968 66.432 241.683 67.3606C241.326 68.7178 241.397 69.8607 241.54 70.5036" stroke="#010202" stroke-width="0.475351" stroke-miterlimit="10" stroke-linecap="round"/>
<path d="M247.897 68.7175C247.183 69.0033 246.183 69.289 244.897 69.6462C242.397 70.2176 241.111 70.2176 240.825 71.0034C240.54 71.7177 241.468 72.6463 241.54 72.7892C242.54 73.7893 244.254 74.0035 246.04 73.2892C245.897 73.6464 245.683 74.2178 245.754 74.9322C245.897 76.7894 247.754 77.718 247.897 77.7895" stroke="#010202" stroke-width="0.475351" stroke-miterlimit="10" stroke-linecap="round"/>
<path d="M293.757 108.077C294.151 108.077 294.471 107.757 294.471 107.363C294.471 106.968 294.151 106.648 293.757 106.648C293.362 106.648 293.043 106.968 293.043 107.363C293.043 107.757 293.362 108.077 293.757 108.077Z" fill="#010202"/>
<path d="M302.615 110.363C303.009 110.363 303.329 110.043 303.329 109.649C303.329 109.254 303.009 108.934 302.615 108.934C302.22 108.934 301.9 109.254 301.9 109.649C301.9 110.043 302.22 110.363 302.615 110.363Z" fill="#010202"/>
<path d="M299.686 111.006C299.543 112.077 299.4 113.077 299.186 114.149C299.114 114.578 298.686 114.935 298.257 114.863L296.186 114.578" stroke="#010202" stroke-width="0.475351" stroke-miterlimit="10" stroke-linecap="round"/>
<path d="M295.971 119.363C297.972 119.22 299.043 117.22 299.114 117.077C298.329 117.149 297.257 117.149 296.114 117.006C294.114 116.72 292.614 115.934 291.685 115.363C291.971 117.792 294.043 119.506 295.971 119.363Z" fill="white" stroke="#010202" stroke-width="0.475351" stroke-miterlimit="10" stroke-linecap="round"/>
<path d="M293.614 119.935C293.828 120.006 294.186 120.149 294.543 120.221C294.828 120.292 295.114 120.292 295.328 120.292" stroke="#010202" stroke-width="0.475351" stroke-miterlimit="10" stroke-linecap="round"/>
<path d="M294.828 105.363C294.828 105.291 294.686 104.934 294.328 104.791C293.971 104.648 293.543 104.791 293.257 105.148" stroke="#010202" stroke-width="0.475351" stroke-miterlimit="10" stroke-linecap="round"/>
<path d="M302.114 107.434C302.114 107.363 302.4 107.077 302.757 107.077C303.115 107.077 303.543 107.363 303.686 107.791" stroke="#010202" stroke-width="0.475351" stroke-miterlimit="10" stroke-linecap="round"/>
<path d="M165.25 153.937C163.75 154.865 161.893 156.222 160.036 158.223C158.107 160.294 156.75 162.294 155.892 163.866" stroke="#010202" stroke-width="0.475351" stroke-miterlimit="10" stroke-linecap="round"/>
<path d="M78.6025 193.725C80.8169 189.653 83.0313 185.581 85.2457 181.51" stroke="#010202" stroke-width="0.475351" stroke-miterlimit="10" stroke-linecap="round"/>
<path d="M74.9595 29.7872C79.2455 26.1441 84.2457 22.3582 89.9603 18.7151C100.747 11.7862 111.033 7.28595 119.676 4.21436C124.819 7.71455 130.462 12.2148 136.177 17.7865C148.535 30.0015 156.107 42.7878 160.607 52.4312C155.392 53.0027 148.821 54.2885 141.606 57.1458C129.748 61.7889 121.462 68.5749 116.605 73.2895C112.462 65.7891 105.961 56.0028 96.1035 46.288C88.6031 38.9305 81.1741 33.5731 74.9595 29.7872Z" fill="#32C766"/>
<path d="M141.82 72.7181C141.677 72.0752 141.534 71.1466 141.463 70.0751C141.392 69.5037 141.392 68.4322 141.534 66.7178C141.82 63.6462 142.249 63.3605 142.177 61.9318C142.106 60.9318 141.82 59.4317 140.534 57.6459C139.677 58.0031 138.82 58.3602 137.891 58.7888C137.177 59.146 136.391 59.5031 135.748 59.7889C134.82 59.7889 133.534 59.7174 131.891 59.3603C130.105 59.0031 129.177 58.4317 128.677 58.9317C128.177 59.4317 128.677 60.5746 128.891 61.0747C129.391 62.0033 130.248 62.4319 130.605 62.5747C130.177 62.8605 129.748 63.0748 129.391 63.3605C129.748 63.7177 130.248 64.2891 130.534 65.0749C131.105 66.5035 130.605 67.4321 130.891 68.7894C131.034 69.5751 131.605 70.6466 133.105 71.7895C133.534 73.7182 133.963 75.7183 134.391 77.647C136.891 75.9326 139.392 74.3611 141.82 72.7181Z" fill="white" stroke="#010202" stroke-width="0.475351" stroke-miterlimit="10" stroke-linecap="round"/>
<path d="M129.748 61.8601C130.32 62.2887 131.248 63.003 132.534 63.3602C133.177 63.5745 133.748 63.6459 134.248 63.6459C134.106 64.0031 133.963 64.5746 133.891 65.2889C133.82 66.0746 133.748 66.8604 134.177 67.6461C134.32 67.9319 134.606 68.4319 135.248 68.7891" stroke="#010202" stroke-width="0.475351" stroke-miterlimit="10" stroke-linecap="round"/>
<path d="M104.318 7.07175C105.675 6.42886 107.033 5.78597 108.461 5.14308C112.676 3.35727 116.676 2.00005 120.248 1C124.534 3.92873 129.177 7.57178 134.034 12.072C138.32 16.0008 141.892 19.8581 144.892 23.5012" stroke="white" stroke-width="0.475351" stroke-miterlimit="10" stroke-linecap="round"/>
<path d="M92.889 13.715C94.9606 12.2864 97.3179 10.8577 99.8894 9.42908" stroke="white" stroke-width="0.475351" stroke-miterlimit="10" stroke-linecap="round"/>
<path d="M101.175 19.1439C103.89 17.4295 107.033 15.7151 110.39 14.0722C113.676 12.5006 116.747 11.1434 119.605 10.0719" stroke="white" stroke-width="0.475351" stroke-miterlimit="10" stroke-linecap="round"/>
<path d="M104.318 22.7153C107.033 21.0009 110.176 19.2866 113.533 17.6436C116.819 16.0721 119.89 14.7149 122.748 13.6434" stroke="white" stroke-width="0.475351" stroke-miterlimit="10" stroke-linecap="round"/>
<path d="M120.319 38.4306C123.034 36.7162 126.177 35.0018 129.534 33.3589C132.82 31.7874 135.891 30.4302 138.749 29.3587" stroke="white" stroke-width="0.475351" stroke-miterlimit="10" stroke-linecap="round"/>
<path d="M116.747 34.7161C119.462 33.0017 122.605 31.2873 125.962 29.6444C129.248 28.0728 132.32 26.7156 135.177 25.6441" stroke="white" stroke-width="0.475351" stroke-miterlimit="10" stroke-linecap="round"/>
<path d="M142.32 38.502C141.534 38.6448 139.391 39.002 137.82 40.8592C135.677 43.2879 135.463 47.0739 137.106 49.7169C139.463 53.4313 144.82 53.7171 148.178 51.8598C149.106 51.2884 151.464 49.7168 151.964 46.7881C152.392 44.2166 151.321 41.5021 149.106 39.7163" stroke="white" stroke-width="0.475351" stroke-miterlimit="10" stroke-linecap="round"/>
<path d="M140.32 45.5736C141.749 46.5023 143.249 47.3595 144.678 48.2881C145.249 44.145 145.749 39.9305 146.32 35.7874" stroke="white" stroke-width="0.475351" stroke-miterlimit="10" stroke-linecap="round"/>
<path d="M84.1028 29.287C85.6029 28.0012 87.3887 26.644 89.5317 25.2868C91.1032 24.2867 92.6747 23.501 94.0319 22.8581C95.6035 23.7867 97.3893 25.001 99.1751 26.5011C101.104 28.0726 102.747 29.7156 104.032 31.1442C102.532 31.8585 100.818 32.7157 98.9608 33.8586C97.175 34.9301 95.6749 36.0731 94.4605 37.1445C93.2462 35.9302 91.889 34.6444 90.1746 33.3586C88.0316 31.5728 85.9601 30.287 84.1028 29.287Z" stroke="white" stroke-width="0.475351" stroke-miterlimit="10" stroke-linecap="round"/>
<path d="M98.1036 40.8593C99.4609 39.7163 101.318 38.3591 103.675 37.2162C105.247 36.4305 106.747 35.859 108.033 35.5018C109.461 36.5019 111.033 37.7877 112.676 39.3592C114.39 41.0021 115.819 42.6451 116.962 44.1451C115.462 44.7166 113.747 45.3595 111.962 46.3595C110.247 47.2882 108.676 48.2168 107.39 49.1454C106.39 47.9311 105.104 46.5738 103.604 45.2166C101.675 43.3594 99.7466 41.9307 98.1036 40.8593Z" stroke="white" stroke-width="0.475351" stroke-miterlimit="10" stroke-linecap="round"/>
<path d="M110.461 53.5742C111.962 52.7884 113.39 52.0027 114.89 51.2169C116.605 50.2883 118.319 49.3597 120.033 48.431C121.605 49.7882 123.391 51.5026 125.105 53.5742C126.462 55.1457 127.534 56.7172 128.391 58.0744C126.962 58.6459 125.319 59.4316 123.605 60.3602C121.819 61.4317 120.248 62.5032 118.962 63.5033C118.176 62.0032 117.033 60.2174 115.462 58.2887C113.747 56.2886 111.962 54.7171 110.461 53.5742Z" stroke="white" stroke-width="0.475351" stroke-miterlimit="10" stroke-linecap="round"/>
<path d="M104.318 58.7887C105.961 60.6459 107.604 62.7175 109.318 65.0033C112.247 69.0035 114.604 72.7894 116.533 76.2896C118.605 74.2181 121.033 72.0751 123.819 69.9322C125.462 68.6464 127.105 67.5034 128.677 66.5034" stroke="#738F93" stroke-width="0.475351" stroke-miterlimit="10" stroke-linecap="round"/>
<path d="M100.961 55.0743C101.747 55.8601 102.532 56.7173 103.318 57.5745" stroke="#738F93" stroke-width="0.475351" stroke-miterlimit="10" stroke-linecap="round"/>
<path d="M67.3878 78.8614C68.1735 79.2185 68.8878 79.5757 69.6736 79.9329" stroke="#32C766" stroke-width="0.475351" stroke-miterlimit="10" stroke-linecap="round"/>
<path d="M69.9594 75.5753C70.5308 76.1468 71.0309 76.7897 71.6023 77.3611" stroke="#32C766" stroke-width="0.475351" stroke-miterlimit="10" stroke-linecap="round"/>
<path d="M73.8167 74.004C74.0309 74.7183 74.1737 75.3612 74.388 76.0755" stroke="#32C766" stroke-width="0.475351" stroke-miterlimit="10" stroke-linecap="round"/>
<path d="M67.8877 57.0743C68.4006 57.0743 68.8164 56.6585 68.8164 56.1457C68.8164 55.6328 68.4006 55.217 67.8877 55.217C67.3749 55.217 66.9591 55.6328 66.9591 56.1457C66.9591 56.6585 67.3749 57.0743 67.8877 57.0743Z" fill="#31D4D2"/>
<path d="M272.041 92.219C272.554 92.219 272.97 91.8032 272.97 91.2904C272.97 90.7775 272.554 90.3618 272.041 90.3618C271.529 90.3618 271.113 90.7775 271.113 91.2904C271.113 91.8032 271.529 92.219 272.041 92.219Z" stroke="#010202" stroke-width="0.475351" stroke-miterlimit="10" stroke-linecap="round"/>
<path d="M184.18 56.1457C184.693 56.1457 185.108 55.7299 185.108 55.217C185.108 54.7042 184.693 54.2884 184.18 54.2884C183.667 54.2884 183.251 54.7042 183.251 55.217C183.251 55.7299 183.667 56.1457 184.18 56.1457Z" fill="#DB2644"/>
<path d="M219.324 135.007C219.837 135.007 220.253 134.591 220.253 134.078C220.253 133.566 219.837 133.15 219.324 133.15C218.812 133.15 218.396 133.566 218.396 134.078C218.396 134.591 218.812 135.007 219.324 135.007Z" fill="#DB2644"/>
<path d="M159.536 27.5014C160.048 27.5014 160.464 27.0856 160.464 26.5728C160.464 26.0599 160.048 25.6441 159.536 25.6441C159.023 25.6441 158.607 26.0599 158.607 26.5728C158.607 27.0856 159.023 27.5014 159.536 27.5014Z" fill="#31D4D2"/>
<path d="M57.1015 84.3616C57.6932 84.3616 58.1729 83.8819 58.1729 83.2901C58.1729 82.6984 57.6932 82.2186 57.1015 82.2186C56.5097 82.2186 56.03 82.6984 56.03 83.2901C56.03 83.8819 56.5097 84.3616 57.1015 84.3616Z" stroke="#010202" stroke-width="0.475351" stroke-miterlimit="10" stroke-linecap="round"/>
<path d="M52.3871 114.649C52.7027 114.649 52.9585 114.393 52.9585 114.078C52.9585 113.762 52.7027 113.506 52.3871 113.506C52.0715 113.506 51.8156 113.762 51.8156 114.078C51.8156 114.393 52.0715 114.649 52.3871 114.649Z" fill="#0061FF"/>
<path d="M54.0298 60.0032C54.0298 60.5747 54.0298 61.1461 53.9584 61.7176C53.9584 61.8605 53.887 61.9319 53.8156 62.0033C53.387 62.3605 52.8869 62.6462 52.3869 62.9319C51.8869 63.2177 51.3869 63.5034 50.8154 63.7177C50.744 63.7891 50.6011 63.7891 50.4582 63.7177C49.9582 63.5034 49.3867 63.2177 48.8867 62.9319C48.3867 62.6462 47.8867 62.3605 47.4581 62.0033C47.3866 61.9319 47.3152 61.8605 47.3152 61.7176C47.2438 61.1461 47.2438 60.5747 47.2438 60.0032C47.2438 59.4317 47.2438 58.8603 47.3152 58.2888C47.3152 58.2888 47.3152 58.2888 47.3152 58.2174C47.3152 58.146 47.3866 58.0031 47.4581 57.9317C47.4581 57.9317 47.5295 57.9317 47.5295 57.8602C47.9581 57.5031 48.4581 57.2173 48.9581 56.9316C49.4582 56.6459 49.9582 56.3602 50.5297 56.1459C50.6011 56.1459 50.744 56.1459 50.8154 56.1459C51.3154 56.3602 51.8869 56.6459 52.3869 56.9316C52.8869 57.2173 53.387 57.5031 53.8156 57.8602C53.8156 57.8602 53.8155 57.8602 53.887 57.8602C53.9584 57.9317 54.0298 58.0031 54.0298 58.146C54.0298 58.146 54.0298 58.146 54.0298 58.2174C54.0298 58.8603 54.0298 59.4317 54.0298 60.0032Z" fill="#00ACE0"/>
<path d="M274.542 55.2172C274.542 55.7886 274.542 56.3601 274.47 56.9315C274.47 57.0744 274.399 57.1458 274.327 57.2173C273.899 57.5744 273.399 57.8602 272.899 58.1459C272.399 58.4316 271.899 58.7173 271.327 58.9316C271.256 59.0031 271.113 59.0031 270.97 58.9316C270.47 58.7173 269.899 58.4316 269.398 58.1459C268.898 57.8602 268.398 57.5744 267.97 57.2173C267.898 57.1458 267.827 57.0744 267.827 56.9315C267.756 56.3601 267.756 55.7886 267.756 55.2172C267.756 54.6457 267.756 54.0742 267.827 53.5028C267.827 53.5028 267.827 53.5028 267.827 53.4313C267.827 53.3599 267.898 53.217 267.97 53.1456C267.97 53.1456 268.041 53.1456 268.041 53.0742C268.47 52.717 268.97 52.4313 269.47 52.1456C269.97 51.8598 270.47 51.5741 271.041 51.3598C271.113 51.3598 271.256 51.3598 271.327 51.3598C271.827 51.5741 272.399 51.8598 272.899 52.1456C273.399 52.4313 273.899 52.717 274.327 53.0742C274.327 53.0742 274.327 53.0742 274.399 53.0742C274.47 53.1456 274.542 53.217 274.542 53.3599C274.542 53.3599 274.542 53.3599 274.542 53.4313C274.47 54.0742 274.542 54.6457 274.542 55.2172Z" stroke="white" stroke-width="0.475351" stroke-miterlimit="10" stroke-linecap="round"/>
<path d="M117.462 86.8618C117.462 88.1476 117.39 89.5048 117.39 90.7906" stroke="white" stroke-width="0.475351" stroke-miterlimit="10" stroke-linecap="round"/>
<path d="M115.533 88.9334C116.819 88.9334 118.176 88.862 119.462 88.862" stroke="white" stroke-width="0.475351" stroke-miterlimit="10" stroke-linecap="round"/>
<path d="M26.957 88.862C26.957 90.1477 26.8856 91.505 26.8856 92.7907" stroke="#010202" stroke-width="0.475351" stroke-miterlimit="10" stroke-linecap="round"/>
<path d="M24.9569 90.8618C26.2427 90.8618 27.5999 90.7904 28.8857 90.7904" stroke="#010202" stroke-width="0.475351" stroke-miterlimit="10" stroke-linecap="round"/>
<path d="M286.256 74.0751C286.256 75.1466 286.185 76.1467 286.185 77.2182" stroke="white" stroke-width="0.475351" stroke-miterlimit="10" stroke-linecap="round"/>
<path d="M284.685 75.7184C285.756 75.7184 286.757 75.647 287.828 75.647" stroke="white" stroke-width="0.475351" stroke-miterlimit="10" stroke-linecap="round"/>
<path d="M233.825 82.4329C233.825 83.29 233.754 84.0758 233.754 84.933" stroke="#DB2644" stroke-width="0.475351" stroke-miterlimit="10" stroke-linecap="round"/>
<path d="M232.611 83.7185C233.468 83.7185 234.254 83.6471 235.111 83.6471" stroke="#DB2644" stroke-width="0.475351" stroke-miterlimit="10" stroke-linecap="round"/>
<path d="M159.535 64.0746C159.535 64.9317 159.464 65.7175 159.464 66.5747" stroke="white" stroke-width="0.475351" stroke-miterlimit="10" stroke-linecap="round"/>
<path d="M158.321 65.3606C159.178 65.3606 159.964 65.2891 160.821 65.2891" stroke="white" stroke-width="0.475351" stroke-miterlimit="10" stroke-linecap="round"/>
<path d="M17.0992 108.649C17.5992 108.649 18.6707 108.649 19.7422 109.22C21.8137 110.363 22.2423 112.649 22.3138 112.934C22.9567 112.077 23.5996 111.149 24.2424 110.291C24.0281 109.791 23.4567 108.863 22.3138 108.22C19.8851 106.934 17.2421 108.577 17.0992 108.649Z" fill="#FF9CE4"/>
<path d="M49.3869 90.4333C49.1726 90.5761 47.8868 91.4333 47.6725 93.0763C47.5297 94.4335 48.1725 95.7907 49.3869 96.5765C49.3155 96.3622 49.1726 94.9335 50.1012 93.6477C51.0298 92.4334 52.3871 92.2191 52.6728 92.2191C51.5299 91.5762 50.4584 91.0047 49.3869 90.4333Z" fill="#0061FF"/>
<path d="M28.1714 141.722C27.9571 141.865 26.6713 142.722 26.457 144.365C26.3142 145.722 26.957 147.079 28.1714 147.865C28.1 147.651 27.9571 146.222 28.8857 144.936C29.8143 143.722 31.1716 143.508 31.4573 143.508C30.3144 142.865 29.2429 142.293 28.1714 141.722Z" stroke="#010202" stroke-width="0.475351" stroke-miterlimit="10" stroke-linecap="round"/>
<path d="M92.9605 59.9318C92.6748 59.9318 91.1746 59.8604 90.3174 60.9319C89.3173 62.1462 89.6031 64.5749 91.5318 66.2179C90.9603 65.1464 91.0318 63.8606 91.7461 62.932C92.7462 61.7176 94.3177 61.9319 94.3891 61.9319C93.9606 61.3605 93.4605 60.6461 92.9605 59.9318Z" stroke="#010202" stroke-width="0.475351" stroke-miterlimit="10" stroke-linecap="round"/>
<path d="M211.395 100.077C211.61 100.434 212.11 101.148 213.11 101.505C214.396 102.005 215.967 101.577 217.11 100.434C216.753 99.7908 216.467 99.1479 216.11 98.505C215.967 98.6479 215.253 99.4337 214.038 99.5051C212.681 99.5765 211.895 98.6479 211.753 98.505C211.61 99.0051 211.467 99.5051 211.395 100.077Z" stroke="#010202" stroke-width="0.475351" stroke-miterlimit="10" stroke-linecap="round"/>
<path d="M240.254 131.435C240.254 131.792 240.326 132.721 240.968 133.507C241.826 134.578 243.397 135.007 244.969 134.578C245.04 133.864 245.04 133.15 245.111 132.435C244.897 132.507 243.897 132.793 242.826 132.221C241.611 131.578 241.397 130.435 241.326 130.221C241.04 130.65 240.611 131.078 240.254 131.435Z" fill="#2AC59F"/>
<path d="M193.394 32.6445C193.966 33.1445 194.609 33.716 195.18 34.216C195.537 34.2875 196.68 34.4303 197.823 33.716C199.538 32.6445 199.609 30.6444 199.609 30.4301C198.752 30.2158 197.823 29.9301 196.966 29.7158C196.966 30.0015 196.895 30.8587 196.252 31.6445C195.18 32.9302 193.466 32.6445 193.394 32.6445Z" fill="#31D4D2"/>
<path d="M229.039 52.36C228.968 52.0028 228.896 50.717 229.611 49.5741C230.896 47.6454 233.397 47.7883 233.468 47.7883C233.468 48.574 233.468 49.2884 233.468 50.0741C233.111 50.0027 232.325 49.7884 231.396 50.0741C229.753 50.5741 229.111 52.1457 229.039 52.36Z" fill="#097BBF"/>
<path d="M303.329 69.0034C303.543 69.0034 304.186 69.0034 304.758 69.432C305.4 70.0035 305.686 70.9321 305.472 71.8607C306.115 71.5036 306.686 71.2178 307.329 70.8607C307.472 69.7892 307.115 68.7891 306.329 68.2177C305.472 67.5748 304.543 67.6462 304.329 67.7177C303.972 68.1463 303.615 68.5749 303.329 69.0034Z" fill="#2AC59F"/>
<path d="M258.398 32.573C258.612 32.573 259.255 32.573 259.827 33.0016C260.469 33.5731 260.755 34.5017 260.541 35.4303C261.184 35.0731 261.755 34.7874 262.398 34.4302C262.541 33.3588 262.184 32.3587 261.398 31.7872C260.541 31.1443 259.612 31.2158 259.398 31.2872C259.041 31.7158 258.684 32.1444 258.398 32.573Z" fill="#F8D47B"/>
<path d="M211.253 74.7896C212.11 74.2895 213.038 73.7895 213.896 73.3609" stroke="#1BA94C" stroke-width="0.475351" stroke-miterlimit="10" stroke-linecap="round"/>
<path d="M212.181 78.0753C213.253 78.0039 214.253 77.9325 215.324 77.861" stroke="#1BA94C" stroke-width="0.475351" stroke-miterlimit="10" stroke-linecap="round"/>
<path d="M212.11 81.7186C212.967 82.1472 213.824 82.5044 214.681 82.933" stroke="#1BA94C" stroke-width="0.475351" stroke-miterlimit="10" stroke-linecap="round"/>
<path opacity="0.29" d="M141.82 73.2894C142.249 74.3609 142.82 75.861 143.535 77.7182C144.106 79.0754 145.035 81.5041 145.535 82.5756C146.392 84.5757 148.463 89.3617 152.892 93.9333C155.75 96.8621 158.393 98.5764 159.25 99.0765C162.25 100.862 165.036 101.862 167.107 102.362" stroke="white" stroke-width="0.475351" stroke-miterlimit="10" stroke-linecap="round"/>
<path opacity="0.29" d="M201.038 116.72C203.824 116.578 207.181 116.149 210.895 115.22C214.324 114.363 217.253 113.292 219.682 112.22" stroke="white" stroke-width="0.475351" stroke-miterlimit="10" stroke-linecap="round"/>
<path opacity="0.29" d="M146.392 118.363C144.606 120.935 143.32 123.292 142.32 125.221C140.392 129.15 139.463 132.507 139.034 134.15C138.677 135.579 138.106 137.864 137.82 140.936C137.177 148.079 138.677 153.722 139.82 157.58C140.392 159.58 140.963 161.151 141.32 162.08" stroke="white" stroke-width="0.475351" stroke-miterlimit="10" stroke-linecap="round"/>
<path opacity="0.29" d="M189.751 189.224C188.251 195.939 186.751 202.654 185.251 209.368C184.68 209.654 184.037 209.868 183.322 210.011C179.751 210.868 176.679 209.368 175.393 208.725" stroke="white" stroke-width="0.475351" stroke-miterlimit="10" stroke-linecap="round"/>
<path d="M63.459 178.366C60.5301 181.295 58.1729 183.581 56.5299 185.081C56.4585 185.152 54.387 187.081 51.8869 189.938C50.3154 191.724 49.6011 192.796 49.1725 194.224C48.7439 195.582 48.8153 196.725 48.8153 198.082C48.8867 199.439 49.1009 201.439 49.8867 203.796" stroke="white" stroke-width="0.475351" stroke-miterlimit="10" stroke-linecap="round"/>
<path d="M74.4595 212.011C74.6738 212.726 75.1024 213.94 75.7453 215.297C76.6739 217.154 78.1026 219.155 84.1029 224.512C85.103 225.369 86.4602 226.584 88.1745 228.012" stroke="white" stroke-width="0.475351" stroke-miterlimit="10" stroke-linecap="round"/>
<path d="M50.9583 206.511C51.8869 209.297 52.8154 212.154 53.6726 214.94" stroke="white" stroke-width="0.475351" stroke-miterlimit="10" stroke-linecap="round"/>
<path d="M86.8173 116.22C87.3173 116.792 87.9602 117.435 88.8889 117.863C92.3176 119.578 96.0321 117.435 96.4607 117.22" stroke="white" stroke-width="0.475351" stroke-miterlimit="10" stroke-linecap="round"/>
<path d="M98.3893 116.077C98.8894 115.577 99.4608 115.006 99.9608 114.506" stroke="white" stroke-width="0.475351" stroke-miterlimit="10" stroke-linecap="round"/>
<path opacity="0.29" d="M49.3154 133.436C51.6726 135.436 53.8156 136.936 55.3871 137.864C57.5301 139.222 59.3873 140.293 62.1018 141.079C64.3162 141.722 66.0305 142.222 68.1735 141.65C70.6736 141.007 72.2452 139.222 72.8166 138.364" stroke="white" stroke-width="0.475351" stroke-miterlimit="10" stroke-linecap="round"/>
<path opacity="0.29" d="M98.8893 138.864C99.1036 138.507 99.4608 138.007 100.032 137.579C101.318 136.579 102.89 136.65 103.747 136.65C104.39 136.65 105.39 136.793 106.533 137.222" stroke="#39424E" stroke-width="0.475351" stroke-miterlimit="10" stroke-linecap="round"/>
<path opacity="0.29" d="M289.042 131.793C288.328 137.222 287.614 141.793 287.042 145.151C286.185 150.222 285.542 154.222 284.399 159.437C283.328 164.509 282.256 168.723 281.399 171.652" stroke="white" stroke-width="0.475351" stroke-miterlimit="10" stroke-linecap="round"/>
<path opacity="0.17" d="M257.184 171.723C259.255 172.509 261.541 173.223 264.112 173.723C276.899 176.295 287.899 172.509 294.043 169.795C290.4 171.152 284.614 172.723 277.399 172.723C269.113 172.723 262.612 170.58 258.827 168.937C258.255 169.795 257.755 170.795 257.184 171.723Z" fill="#010202"/>
<path opacity="0.29" d="M297.614 126.507C299.043 126.507 301.114 126.364 303.543 125.935C307.901 125.221 310.972 123.935 313.972 122.721C316.401 121.721 319.544 120.292 323.116 118.22" stroke="white" stroke-width="0.475351" stroke-miterlimit="10" stroke-linecap="round"/>
<path opacity="0.29" d="M300.329 146.008C299.614 148.222 299.114 150.079 298.757 151.436C298.114 153.722 297.614 155.651 297.114 158.223C296.9 159.294 296.686 160.58 296.471 162.366C296.186 164.794 296.114 166.866 296.114 168.437" stroke="white" stroke-width="0.475351" stroke-miterlimit="10" stroke-linecap="round"/>
<path opacity="0.29" d="M296.543 179.581C297.9 183.724 299.614 189.724 301.186 196.939C302.257 201.868 302.9 206.297 304.043 214.94C304.972 222.297 306.115 232.155 307.258 244.084" stroke="white" stroke-width="0.475351" stroke-miterlimit="10" stroke-linecap="round"/>
</svg>
